<?xml version="1.0" encoding="UTF-8"?>
<svg viewBox="0 0 56 62" fill="none" xmlns="http://www.w3.org/2000/svg">
  <path d="M33.209 61.2216C33.209 56.0115 33.209 50.845 33.209 45.6553C33.2845 45.6466 33.363 45.6292 33.4414 45.6292C35.6644 45.6292 37.8902 45.6205 40.1131 45.635C41.2289 45.6408 42.3302 45.789 43.3937 46.1377C45.5759 46.8525 46.9852 48.3199 47.5344 50.5516C48.0313 52.574 47.9935 54.608 47.4385 56.6188C46.8022 58.926 45.2679 60.315 42.9666 60.8961C42.0425 61.1286 41.104 61.2274 40.1567 61.2332C37.9221 61.2448 35.6847 61.239 33.4502 61.2361C33.3804 61.2332 33.3107 61.2245 33.209 61.2216ZM37.928 57.8799C38.7852 57.8392 39.6278 57.8567 40.4531 57.7462C41.7984 57.5632 42.6876 56.7961 43.0334 55.4594C43.3501 54.239 43.3821 53.004 43.1351 51.772C42.8707 50.4586 42.1094 49.5694 40.7872 49.2062C39.8516 48.9505 38.8956 49.0173 37.9309 49.0144C37.928 51.9579 37.928 54.8753 37.928 57.8799Z" fill="#144390"/>
  <path d="M6.67574 58.373C6.43456 59.3115 6.19048 60.2559 5.94349 61.2177C4.27848 61.2177 2.61347 61.2177 0.916504 61.2177C2.54083 55.9437 4.32207 50.7395 6.41422 45.6399C8.4686 45.6399 10.523 45.6399 12.5832 45.6399C14.6782 50.7366 16.4537 55.9321 18.0809 61.209C16.4043 61.209 14.7451 61.209 13.0539 61.209C12.8156 60.2792 12.5715 59.3348 12.3217 58.373C10.4416 58.373 8.57902 58.373 6.67574 58.373ZM9.52921 48.5253C9.49434 48.5253 9.46237 48.5224 9.4275 48.5224C8.74465 50.664 8.06179 52.8026 7.37313 54.9674C8.81729 54.9674 10.1917 54.9674 11.5952 54.9674C10.953 52.7823 10.2963 50.6349 9.52921 48.5253Z" fill="#144390"/>
  <path d="M19.5738 45.6378C21.1604 45.6378 22.7033 45.6378 24.2841 45.6378C24.2841 45.7744 24.2841 45.8993 24.2841 46.0272C24.2841 49.3136 24.2812 52.6001 24.287 55.8894C24.287 56.2061 24.3102 56.5287 24.3538 56.8425C24.4236 57.3161 24.7199 57.6038 25.1849 57.6881C25.4638 57.7375 25.7486 57.7607 26.0304 57.7636C27.4368 57.7694 28.8432 57.7665 30.2525 57.7665C30.3688 57.7665 30.485 57.7665 30.6187 57.7665C30.8511 58.9201 31.0807 60.0505 31.3131 61.2099C31.2027 61.2186 31.1155 61.236 31.0284 61.236C28.5468 61.236 26.0624 61.2476 23.5809 61.2273C23.0898 61.2244 22.5842 61.1546 22.1135 61.021C20.6925 60.6142 19.9312 59.603 19.6697 58.1879C19.6 57.8188 19.5738 57.4353 19.5738 57.0604C19.568 53.3352 19.5709 49.6129 19.5709 45.8877C19.5738 45.8093 19.5738 45.7395 19.5738 45.6378Z" fill="#144390"/>
  <path d="M50.4253 45.6437C51.9857 45.6437 53.5316 45.6437 55.0891 45.6437C55.0891 50.8363 55.0891 56.0115 55.0891 61.2099C53.5403 61.2099 51.9973 61.2099 50.4253 61.2099C50.4253 56.0347 50.4253 50.8508 50.4253 45.6437Z" fill="#144390"/>
  <path d="M46.3867 19.8524C48.0547 19.8495 49.2402 20.6021 49.955 22.1044C50.7251 23.7258 51.5009 25.3443 52.2738 26.9657C52.2971 27.0151 52.3174 27.0674 52.3639 27.1749C51.9891 26.8263 51.6811 26.5996 51.3324 26.3875C50.6437 25.969 49.862 25.9022 49.0775 25.9022C48.2668 25.8993 39.904 25.8993 32.0003 25.8993L34.0547 19.8553C40.1858 19.8524 46.0875 19.8524 46.3867 19.8524ZM55.909 35.715C55.136 34.0936 54.3631 32.4751 53.5901 30.8536C52.8753 29.3514 51.6898 28.5959 50.0219 28.6017C49.6122 28.6017 38.6981 28.6046 31.0792 28.6046L29.0248 34.6457C38.0036 34.6457 51.6636 34.6486 52.7126 34.6515C53.4972 34.6544 54.2788 34.7183 54.9675 35.1368C55.3133 35.346 55.6213 35.5755 55.999 35.9242C55.9525 35.8167 55.9322 35.7644 55.909 35.715ZM34.9729 17.1559C39.3664 17.1588 44.3237 17.1588 45.5034 17.1617C46.288 17.1646 47.0696 17.2285 47.7583 17.6469C48.1041 17.8561 48.4121 18.0857 48.7898 18.4344C48.7433 18.3269 48.723 18.2775 48.6997 18.2252C47.9268 16.6038 47.1539 14.9852 46.3809 13.3638C45.6661 11.8615 44.4806 11.106 42.8127 11.1118C42.3739 11.1118 39.6076 11.1148 37.0273 11.1148L34.9729 17.1559Z" fill="#144390"/>
  <path d="M31.3387 0C30.3304 0.215027 29.5139 0.752594 28.9618 1.5633C28.4562 2.30428 28.0349 3.13533 27.7269 3.9809C26.8609 6.36073 26.0677 8.76671 25.254 11.1669C23.4902 16.3595 21.7264 21.555 19.9655 26.7505C19.4425 28.2935 18.9369 29.8394 18.3964 31.3765C17.9983 32.5098 17.5973 33.6401 17.1702 34.7617C17.1702 34.7646 17.1673 34.7675 17.1673 34.7704C17.0772 35.0262 16.9784 35.2819 16.8709 35.5288C16.8389 35.6102 16.807 35.6945 16.7721 35.7758C16.406 36.6912 15.8481 37.5019 15.0374 38.1034C14.9589 38.1615 14.8804 38.2138 14.802 38.2661C14.1831 38.6816 13.4741 38.8995 12.6604 38.9024C11.7974 38.9054 10.9315 38.9054 10.0685 38.9054C10.0598 38.9054 10.0482 38.9054 10.0394 38.9054C9.15027 38.9054 8.2611 38.9054 7.37194 38.9054C7.29639 38.9054 7.22374 38.9054 7.14819 38.9054C8.1565 38.6903 8.97302 38.1528 9.52511 37.342C10.0307 36.6011 10.4521 35.77 10.7601 34.9244C11.626 32.5446 12.4193 30.1386 13.2329 27.7385C14.9967 22.5459 16.7605 17.3504 18.5214 12.1548C19.0444 10.6119 19.55 9.066 20.0905 7.52885C20.4886 6.3956 20.8896 5.26526 21.3167 4.14363C21.3167 4.14072 21.3196 4.13782 21.3196 4.13491C21.4097 3.8792 21.5085 3.6235 21.616 3.3765C21.648 3.29514 21.68 3.21088 21.7148 3.12951C22.0809 2.2142 22.6389 1.40349 23.4496 0.801993C23.528 0.743877 23.6036 0.691573 23.6849 0.639269C24.3039 0.223744 25.0129 0.00581154 25.8265 0.00290577C26.6924 0 27.5554 0 28.4184 0C28.4271 0 28.4388 0 28.4475 0C29.3367 0 30.2258 0 31.115 0C31.1905 0 31.2661 0 31.3387 0ZM21.709 0C20.8198 0 19.9307 0 19.0415 0C19.0328 0 19.0212 0 19.0125 0C18.1494 0 17.2835 0 16.4205 0.00290577C15.6069 0.00290577 14.8979 0.223744 14.279 0.639269C14.2005 0.691573 14.122 0.743877 14.0436 0.801993C13.2329 1.40349 12.675 2.2171 12.3088 3.12951C12.2769 3.21088 12.2449 3.29514 12.21 3.3765C12.1025 3.6264 12.0037 3.8792 11.9137 4.13491C11.9166 4.13782 0 38.9083 0 38.9083C0.174346 38.9083 0.462017 38.9083 0.636364 38.9083C0.645081 38.9083 0.656704 38.9083 0.665421 38.9083C1.52843 38.9083 2.39435 38.9083 3.25737 38.9054C4.07098 38.9054 4.77999 38.6845 5.39892 38.269C5.47738 38.2167 5.55583 38.1644 5.63429 38.1063C6.445 37.5048 7.00291 36.6912 7.36903 35.7787C7.401 35.6974 7.43296 35.6131 7.46783 35.5318C7.57534 35.2819 7.67414 35.0291 7.76422 34.7733C7.76422 34.7704 7.76712 34.7675 7.76712 34.7646C8.19427 33.643 8.59527 32.5098 8.99336 31.3794C9.53383 29.8423 10.0394 28.2964 10.5625 26.7534C12.3234 21.5579 14.0872 16.3624 15.851 11.1698C16.6675 8.77252 17.4579 6.36364 18.3238 3.98381C18.6318 3.13823 19.0502 2.30718 19.5587 1.56621C20.1079 0.7555 20.9245 0.215027 21.9328 0C21.8601 0 21.7846 0 21.709 0ZM40.4483 0C39.5592 0 38.67 0 37.7808 0C37.7721 0 37.7605 0 37.7518 0C36.8887 0 36.0228 0 35.1598 0.00290577C34.3462 0.00290577 33.6372 0.223744 33.0183 0.639269C32.9398 0.691573 32.8614 0.743877 32.7829 0.801993C31.9722 1.40349 31.4143 2.2171 31.0482 3.12951C31.0162 3.21088 30.9842 3.29514 30.9494 3.3765C30.8418 3.6264 30.743 3.8792 30.653 4.13491C30.653 4.13782 30.6501 4.14072 30.6501 4.14363C30.2229 5.26526 29.8219 6.39851 29.4238 7.52885C28.8834 9.066 28.3777 10.6119 27.8547 12.1548C26.0938 17.3504 24.33 22.5459 22.5662 27.7385C21.7497 30.1357 20.9593 32.5446 20.0934 34.9244C19.7854 35.77 19.367 36.6011 18.8584 37.342C18.3064 38.1528 17.4898 38.6903 16.4815 38.9054C16.5571 38.9054 16.6297 38.9054 16.7053 38.9054C17.5944 38.9054 18.4836 38.9054 19.3728 38.9054C19.3815 38.9054 19.3931 38.9054 19.4018 38.9054C20.2648 38.9054 21.1308 38.9054 21.9938 38.9024C22.8074 38.9024 23.5164 38.6816 24.1353 38.2661C24.2138 38.2138 24.2922 38.1615 24.3707 38.1034C25.1814 37.5019 25.7393 36.6883 26.1054 35.7758C26.1374 35.6945 26.1694 35.6102 26.2042 35.5288C26.3117 35.279 26.4105 35.0262 26.5006 34.7704C26.5006 34.7675 26.5035 34.7646 26.5035 34.7617C26.9307 33.6401 27.3317 32.5068 27.7298 31.3765C28.2702 29.8394 28.7758 28.2935 29.2989 26.7505C31.0598 21.555 32.8236 16.3595 34.5874 11.1669C35.4039 8.76961 36.1943 6.36073 37.0602 3.9809C37.3682 3.13533 37.7866 2.30428 38.2951 1.5633C38.8472 0.752594 39.6638 0.215027 40.6721 0C40.5994 0 40.5239 0 40.4483 0Z" fill="#144390"/>
</svg>
