<?xml version="1.0" encoding="UTF-8"?>
<svg width="100%" height="100%" viewBox="0 0 32 32" fill="#144390" xmlns="http://www.w3.org/2000/svg" class="logo-aldi">
<title></title>
<path fill-rule="evenodd" clip-rule="evenodd" d="M17.2982 8.00069C17.9233 6.16203 18.5999 5.00736 20.2694 5.00736V5H23.2848V5.09561C22.2478 5.22064 21.5639 6.09584 21.0784 7.53735L15.3786 24.3133C14.7535 26.1519 14.0768 27.3066 12.4073 27.3066H9.45077V27.2183C10.4878 27.0933 11.1129 26.2181 11.5983 24.7766L17.2982 8.00069ZM11.9366 8.03014C12.5618 6.19149 13.2384 5.03681 14.9079 5.03681H17.9233V5.13242C16.8863 5.25745 16.2097 6.13265 15.7169 7.57416L10.0171 24.3648C9.39194 26.2035 8.71531 27.3582 7.04578 27.3582H4.08922V27.2625C5.12622 27.1375 5.74401 26.2623 6.23677 24.8208L11.9366 8.03014ZM9.54631 5.06625C7.87681 5.06625 7.20018 6.22093 6.57504 8.05958L0 27.3949H1.67686C3.34636 27.3949 4.02298 26.2402 4.64813 24.4016L10.3553 7.59624C10.8481 6.15473 11.5247 5.27953 12.5617 5.15451V5.05889H9.54631V5.06625ZM24.1378 11.428C25.3072 11.428 25.9765 11.5898 26.5943 12.8548V12.8475C26.7487 13.1564 27.9181 15.6202 27.9181 15.6202H27.8151C27.3371 14.995 26.6605 14.8847 25.822 14.8847H19.9898L21.1666 11.428H24.1378ZM28.7126 17.8412C28.1315 16.6203 27.4255 16.4217 26.2561 16.4217H19.4678L18.291 19.8784H27.8888C28.7493 19.8784 29.3892 20.0034 29.8746 20.6359H29.9776C29.9776 20.6359 28.8523 18.1427 28.7126 17.8412ZM28.3448 21.445C29.5215 21.445 30.2717 21.651 30.8821 23.0116H30.8895C30.9556 23.166 32 25.6887 32 25.6887H31.897C31.4043 25.0488 30.7571 24.9091 29.9775 24.9091H16.5773C16.627 24.7801 16.6732 24.6477 16.7208 24.5119C16.7436 24.4465 16.7667 24.3803 16.7906 24.3133L17.7614 21.445H28.3448Z" fill="#144390">
</path>
</svg>